<?xml version="1.0" standalone="no"?>
<!DOCTYPE svg PUBLIC "-//W3C//DTD SVG 20010904//EN"
 "http://www.w3.org/TR/2001/REC-SVG-20010904/DTD/svg10.dtd">
<svg version="1.0" xmlns="http://www.w3.org/2000/svg"
 width="512.000000pt" height="512.000000pt" viewBox="0 0 512.000000 512.000000"
 preserveAspectRatio="xMidYMid meet">

<g transform="translate(0.000000,512.000000) scale(0.100000,-0.100000)"
fill="#000000" stroke="none">
<path d="M2945 5109 c-379 -36 -732 -165 -1037 -379 -142 -99 -347 -309 -442
-453 -165 -248 -255 -534 -256 -810 l0 -77 -43 -17 c-78 -30 -266 -132 -359
-194 -414 -275 -684 -657 -780 -1103 -29 -136 -31 -423 -4 -566 52 -269 190
-561 361 -759 l46 -54 -29 -31 c-104 -111 -385 -442 -392 -462 -26 -68 6 -151
70 -184 39 -20 57 -20 1113 -20 1016 0 1083 1 1223 20 532 71 974 285 1315
636 210 216 350 458 425 730 28 103 54 278 54 367 l0 57 398 0 c368 0 400 1
432 19 68 36 98 127 64 193 -9 18 -97 125 -196 240 l-179 209 39 44 c145 165
272 427 324 668 29 136 31 398 5 531 -75 371 -275 694 -587 945 -419 337
-1003 505 -1565 450z m415 -300 c433 -44 814 -218 1090 -498 374 -379 471
-887 255 -1338 -56 -117 -122 -215 -222 -328 -94 -106 -103 -121 -103 -173 0
-48 20 -79 143 -222 50 -58 97 -113 105 -122 14 -17 3 -18 -219 -18 l-235 0
-18 73 c-140 551 -629 1034 -1267 1251 -246 83 -479 120 -774 120 -223 1 -310
-7 -499 -45 -54 -11 -101 -17 -104 -14 -11 10 27 231 53 310 65 197 163 354
325 515 222 223 499 373 830 449 73 17 152 30 275 44 68 8 270 6 365 -4z
m-1044 -1560 c385 -37 752 -178 1031 -395 538 -420 708 -1068 427 -1628 -249
-495 -781 -836 -1422 -911 -103 -12 -292 -15 -1000 -15 l-873 0 140 159 c77
88 145 169 151 182 7 12 10 44 8 74 -4 49 -9 57 -102 161 -192 214 -299 416
-352 664 -25 118 -26 363 -1 480 81 379 327 711 697 941 363 226 843 332 1296
288z"/>
<path d="M1113 2092 c-251 -90 -272 -432 -35 -549 81 -40 183 -40 264 0 107
53 163 144 163 267 0 85 -21 142 -74 203 -72 81 -213 117 -318 79z"/>
<path d="M2013 2092 c-251 -90 -272 -432 -35 -549 81 -40 183 -40 264 0 107
53 163 144 163 267 0 85 -21 142 -74 203 -72 81 -213 117 -318 79z"/>
<path d="M2913 2092 c-251 -90 -272 -432 -35 -549 81 -40 183 -40 264 0 107
53 163 144 163 267 0 85 -21 142 -74 203 -72 81 -213 117 -318 79z"/>
</g>
</svg>
